<svg width="24" height="24" viewBox="0 0 24 24" fill="none" xmlns="http://www.w3.org/2000/svg">
<path d="M13.9498 17.2683L12.4839 17.7927L13.7925 19.9812C13.7964 19.9845 13.7991 19.9876 13.8013 19.989C13.807 19.9926 13.812 19.9953 13.8179 19.9968C13.8313 20.0002 13.8554 20.0011 13.8843 19.991C13.9133 19.9808 13.93 19.9651 13.9371 19.9558C13.94 19.9519 13.9422 19.9481 13.9439 19.9431C13.9456 19.9381 13.9497 19.9256 13.9498 19.9031V17.2683ZM15.9498 19.9031C15.9497 21.8933 13.4453 22.7464 12.2115 21.2126C12.1826 21.1767 12.156 21.1389 12.1324 21.0994L10.564 18.4783L5.68218 20.2244L5.68315 20.2253C5.38882 20.331 5.07439 20.3699 4.76323 20.3386C4.45207 20.3073 4.15172 20.2068 3.88432 20.0447C3.61681 19.8824 3.38889 19.6618 3.21733 19.4001C3.04581 19.1385 2.93431 18.842 2.89214 18.532V18.5281L1.01909 4.36987C0.806467 2.76095 2.40932 1.57205 3.86675 2.14526L4.00737 2.20581L4.00835 2.20679L21.8072 10.7029L21.9595 10.783C23.4819 11.6572 23.3076 13.958 21.605 14.5632L19.1656 15.4324L19.1617 15.4333L17.8316 15.9001C17.3105 16.0831 16.7401 15.8089 16.5572 15.2878C16.3744 14.7668 16.6485 14.1964 17.1695 14.0134L18.4957 13.5476L20.9351 12.6794C20.9691 12.6674 20.9789 12.6548 20.983 12.6492C20.99 12.6393 20.9982 12.6212 20.9996 12.5964C21.0009 12.5715 20.9947 12.5521 20.9888 12.5417C20.9855 12.5359 20.9775 12.5227 20.9458 12.5076L3.14702 4.01147V4.0105C3.12114 3.99839 3.10393 3.99849 3.09233 3.99975C3.07727 4.00142 3.05866 4.00825 3.04057 4.02124C3.02249 4.03427 3.01155 4.04909 3.00639 4.0603C3.00276 4.06829 2.99803 4.08179 3.00151 4.10815L4.87456 18.2624L4.89018 18.3035C4.89835 18.3159 4.90873 18.327 4.92143 18.3347C4.93415 18.3424 4.94865 18.3469 4.96343 18.3484C4.97825 18.3499 4.99337 18.3476 5.00737 18.3425H5.00835L10.6499 16.324C10.6614 16.3197 10.6726 16.3151 10.6841 16.3113L12.7671 15.5662L9.81304 12.3621C9.4388 11.956 9.46472 11.3233 9.87065 10.949C10.2768 10.5747 10.9094 10.6005 11.2837 11.0066L15.1548 15.2058C15.173 15.2255 15.189 15.2472 15.2066 15.2673C15.2812 15.3365 15.3455 15.4178 15.397 15.5095C15.7533 16.0134 15.9497 16.6166 15.9498 17.24V19.9031Z" fill="black"/>
</svg>
